<?xml version="1.0" encoding="utf-8"?><!DOCTYPE svg PUBLIC "-//W3C//DTD SVG 1.1//EN" "http://www.w3.org/Graphics/SVG/1.1/DTD/svg11.dtd"><svg version="1.1" id="Layer_1" xmlns="http://www.w3.org/2000/svg" xmlns:xlink="http://www.w3.org/1999/xlink" x="0px" y="0px"  width="35px" height="35px" viewBox="0 0 35 35" enable-background="new 0 0 35 35" xml:space="preserve"><title>icoon_refresh</title><g> <path d="M21.158,24.037c0.104,0.104,0.247,0.161,0.396,0.16h0.01l4.285-0.062c0.064,0,0.129-0.013,0.189-0.035  c0.225-0.08,0.374-0.292,0.378-0.528c-0.002-0.146-0.062-0.287-0.166-0.392c-0.104-0.103-0.247-0.158-0.396-0.157H25.85  l-2.799,0.041l0.086-0.087c1.483-1.486,2.315-3.502,2.312-5.602c0.001-2.084-0.842-4.08-2.332-5.535  c-1.499-1.476-3.521-2.299-5.624-2.288h-0.119c-0.065,0.001-0.13,0.015-0.191,0.035c-0.224,0.081-0.375,0.292-0.377,0.53  c0.001,0.146,0.06,0.284,0.163,0.386c0.106,0.105,0.251,0.164,0.4,0.162h0.104c1.812-0.009,3.552,0.7,4.843,1.971  c1.279,1.251,2,2.967,2,4.758c0.006,1.866-0.758,3.655-2.109,4.943l-0.085,0.081l-0.006-3.234c0.001-0.146-0.058-0.285-0.162-0.389  c-0.104-0.103-0.246-0.16-0.394-0.159h-0.012c-0.311,0.003-0.562,0.253-0.564,0.563l0.009,4.454  C20.994,23.798,21.055,23.937,21.158,24.037z"/> <path d="M9.537,17.624c-0.001,2.083,0.839,4.079,2.33,5.534c1.499,1.477,3.522,2.3,5.627,2.29h0.124  c0.064-0.001,0.128-0.015,0.188-0.036c0.225-0.08,0.375-0.291,0.379-0.528c0-0.146-0.062-0.287-0.166-0.39  c-0.106-0.104-0.251-0.16-0.399-0.158h-0.107c-1.81,0.009-3.55-0.699-4.839-1.97c-1.281-1.252-2.002-2.968-2-4.759  c-0.006-1.868,0.757-3.655,2.109-4.943l0.085-0.081l0.006,3.235c-0.001,0.146,0.057,0.285,0.161,0.387  c0.106,0.105,0.25,0.163,0.399,0.161h0.009c0.064-0.001,0.129-0.012,0.19-0.033c0.225-0.08,0.375-0.292,0.376-0.531l-0.006-4.456  c0-0.145-0.06-0.283-0.163-0.386c-0.106-0.104-0.25-0.163-0.399-0.162h-0.008l-4.286,0.063c-0.064,0.001-0.129,0.013-0.189,0.035  c-0.224,0.081-0.373,0.293-0.375,0.531c0,0.146,0.059,0.285,0.162,0.388c0.106,0.104,0.25,0.163,0.399,0.161h0.009l2.794-0.045  l-0.086,0.088C10.372,13.505,9.536,15.521,9.537,17.624z"/></g><style type="text/css">circle, ellipse, line, path, polygon, polyline, rect, text { fill: #003082; }</style></svg>